<svg width="352" height="179" viewBox="0 0 352 179" fill="none" xmlns="http://www.w3.org/2000/svg">
<rect width="352" height="179" fill="white"/>
<rect x="101" y="8" width="150" height="150" rx="24" fill="#FF8A8A"/>
<path d="M170.938 68.6667H182.063M157.068 120.583H195.932C206.167 120.583 210.246 114.316 210.728 106.677L212.656 76.0463C212.776 74.147 212.506 72.2432 211.861 70.4526C211.216 68.6621 210.211 67.0228 208.908 65.636C207.605 64.2493 206.031 63.1446 204.284 62.3902C202.536 61.6358 200.653 61.2477 198.75 61.25C196.488 61.25 194.411 59.9521 193.373 57.9496L190.703 52.5725C188.997 49.1979 184.547 46.4167 180.765 46.4167H172.272C168.453 46.4167 164.003 49.1979 162.297 52.5725L159.627 57.9496C158.589 59.9521 156.512 61.25 154.25 61.25C146.203 61.25 139.825 68.0363 140.344 76.0463L142.272 106.677C142.717 114.316 146.833 120.583 157.068 120.583Z" stroke="#FFC2C2" stroke-width="1.5" stroke-linecap="round" stroke-linejoin="round"/>
<path d="M176.5 105.75C183.138 105.75 188.552 100.336 188.552 93.6979C188.552 87.06 183.138 81.6458 176.5 81.6458C169.862 81.6458 164.448 87.06 164.448 93.6979C164.448 100.336 169.862 105.75 176.5 105.75Z" stroke="#FFC2C2" stroke-width="1.5" stroke-linecap="round" stroke-linejoin="round"/>
</svg>
