<svg width="113" height="113" viewBox="0 0 113 113" fill="none" xmlns="http://www.w3.org/2000/svg">
<path fill-rule="evenodd" clip-rule="evenodd" d="M56.5 113C87.7041 113 113 87.7041 113 56.5C113 25.2959 87.7041 0 56.5 0C25.2959 0 0 25.2959 0 56.5C0 87.7041 25.2959 113 56.5 113Z" fill="#FFC8C8"/>
<path fill-rule="evenodd" clip-rule="evenodd" d="M66.6906 45.7544C66.6906 51.3768 62.0703 55.9346 56.371 55.9346C50.6716 55.9346 46.0513 51.3768 46.0513 45.7544C46.0513 40.132 50.6716 35.5742 56.371 35.5742C62.0703 35.5742 66.6906 40.132 66.6906 45.7544ZM37.6666 79.4761C37.6666 69.2856 46.0408 61.0245 56.371 61.0245C66.7011 61.0245 75.0753 69.2856 75.0753 79.4761H37.6666Z" fill="#FF8A8A"/>
</svg>
