<svg width="67" height="67" viewBox="0 0 67 67" fill="none" xmlns="http://www.w3.org/2000/svg">
<path d="M33.3582 43.0874C35.6611 43.0874 37.528 41.2206 37.528 38.9177C37.528 36.6148 35.6611 34.7479 33.3582 34.7479C31.0553 34.7479 29.1885 36.6148 29.1885 38.9177C29.1885 41.2206 31.0553 43.0874 33.3582 43.0874Z" fill="#FFE2E2"/>
<path d="M52.8169 19.4588H44.4774V15.2891C44.4774 13.4459 43.7452 11.6783 42.4419 10.375C41.1386 9.07166 39.371 8.33948 37.5278 8.33948H29.1883C27.3452 8.33948 25.5775 9.07166 24.2742 10.375C22.9709 11.6783 22.2387 13.4459 22.2387 15.2891V19.4588H13.8992C11.6874 19.4588 9.56624 20.3375 8.00228 21.9014C6.43832 23.4654 5.55969 25.5866 5.55969 27.7983V50.0371C5.55969 52.2488 6.43832 54.37 8.00228 55.934C9.56624 57.4979 11.6874 58.3766 13.8992 58.3766H52.8169C55.0287 58.3766 57.1499 57.4979 58.7139 55.934C60.2778 54.37 61.1565 52.2488 61.1565 50.0371V27.7983C61.1565 25.5866 60.2778 23.4654 58.7139 21.9014C57.1499 20.3375 55.0287 19.4588 52.8169 19.4588ZM27.7984 15.2891C27.7984 14.9204 27.9448 14.5669 28.2055 14.3063C28.4662 14.0456 28.8197 13.8992 29.1883 13.8992H37.5278C37.8965 13.8992 38.25 14.0456 38.5107 14.3063C38.7713 14.5669 38.9178 14.9204 38.9178 15.2891V19.4588H27.7984V15.2891ZM33.3581 48.6471C31.4338 48.6471 29.5527 48.0765 27.9527 47.0074C26.3527 45.9383 25.1056 44.4188 24.3692 42.641C23.6329 40.8632 23.4402 38.9069 23.8156 37.0196C24.191 35.1323 25.1176 33.3986 26.4783 32.038C27.839 30.6773 29.5726 29.7506 31.46 29.3752C33.3473 28.9998 35.3035 29.1925 37.0814 29.9289C38.8592 30.6653 40.3787 31.9123 41.4478 33.5123C42.5169 35.1123 43.0875 36.9934 43.0875 38.9177C43.0875 41.4981 42.0624 43.9728 40.2378 45.7975C38.4132 47.6221 35.9385 48.6471 33.3581 48.6471Z" fill="#FFE2E2"/>
</svg>
